<svg xmlns="http://www.w3.org/2000/svg" version="1.1" xmlns:xlink="http://www.w3.org/1999/xlink" xmlns:svgjs="http://svgjs.dev/svgjs" width="1000" height="1000" viewBox="0 0 1000 1000"><rect width="1000" height="1000" fill="#ffffff"></rect><g transform="matrix(0.7,0,0,0.7,149.57575757575756,261.96981378144847)"><svg viewBox="0 0 396 269" data-background-color="#ffffff" preserveAspectRatio="xMidYMid meet" height="679" width="1000" xmlns="http://www.w3.org/2000/svg" xmlns:xlink="http://www.w3.org/1999/xlink"><defs></defs><g id="tight-bounds" transform="matrix(1,0,0,1,0.2400000000000091,22.189770920244925)"><svg viewBox="0 0 395.52 246.5950585887343" height="246.5950585887343" width="395.52"><g><svg viewBox="0 0 395.52000000000004 246.59505858873433" height="246.5950585887343" width="395.52"><g transform="matrix(1,0,0,1,0,159.76435593117463)"><svg viewBox="0 0 395.52000000000004 86.8307026575597" height="86.8307026575597" width="395.52000000000004"><g><svg viewBox="0 0 395.52000000000004 86.8307026575597" height="86.8307026575597" width="395.52000000000004"><g><svg viewBox="0 0 395.52000000000004 57.80319468099512" height="57.80319468099512" width="395.52000000000004"><g transform="matrix(1,0,0,1,0,0)"><svg width="395.52000000000004" viewBox="-0.2125021517276764 -35.555519104003906 351.57977294921875 51.38156509399414" height="57.80319468099512" data-palette-color="#ea3c12"><path d="M9.126-23.062c0.956-0.143 1.698-0.119 2.225 0.071 0.534 0.19 0.833 0.499 0.897 0.928v0c0.612-0.193 1.152-0.341 1.622-0.445 0.47-0.104 1.001-0.2 1.595-0.29v0c2.36-0.353 4.441-0.078 6.241 0.825 1.794 0.904 3.233 2.233 4.317 3.985 1.085 1.752 1.789 3.709 2.113 5.872v0c0.084 0.56 0.129 0.975 0.136 1.243v0c0.293 3.981-0.174 7.596-1.4 10.847-1.225 3.257-3.082 5.912-5.572 7.963-2.497 2.052-5.453 3.334-8.868 3.846v0c-0.949 0.142-2.13 0.201-3.543 0.176v0c-0.542-0.02-1.212-0.28-2.008-0.781-0.796-0.501-1.498-1.11-2.104-1.829-0.612-0.711-0.965-1.379-1.059-2.005v0c-0.054-0.363-0.056-0.713-0.005-1.051v0l2.177-20.711c-1.783 0.833-3.247 1.791-4.393 2.873v0c-0.455-0.336-0.826-0.786-1.112-1.351-0.286-0.557-0.475-1.149-0.569-1.775v0c-0.108-0.719 0.093-1.403 0.602-2.052v0c1.396-1.213 3.403-2.37 6.023-3.47v0c0.379-1.702 1.274-2.658 2.685-2.869zM10.04 6.549c0.814 0.08 1.683 0.051 2.606-0.087v0c2.294-0.344 4.168-1.271 5.62-2.783 1.453-1.505 2.503-3.297 3.149-5.375 0.646-2.079 0.963-4.172 0.951-6.28v0c0.008-0.844-0.063-1.774-0.216-2.789v0c-0.345-2.301-1.127-4.038-2.347-5.21-1.215-1.18-2.89-1.61-5.027-1.29v0c-0.916 0.137-1.744 0.329-2.482 0.574v0c-0.204 2.646-0.701 7.837-1.491 15.573v0c-0.415 4.161-0.67 6.717-0.763 7.667zM41.607 7.959c-2.898 0.36-5.277-0.349-7.137-2.126-1.86-1.778-2.98-4.198-3.361-7.261v0c-0.319-2.567-0.001-5.062 0.955-7.485 0.954-2.43 2.414-4.468 4.379-6.117 1.972-1.649 4.241-2.633 6.808-2.952v0c2.534-0.315 4.721 0.256 6.561 1.714 1.835 1.465 2.952 3.808 3.353 7.031v0c0.283 2.276-0.05 4.709-0.998 7.298-0.947 2.597-2.367 4.822-4.259 6.676-1.892 1.861-3.992 2.935-6.301 3.222zM41.859 3.907c1.052-0.131 2.032-0.921 2.94-2.371 0.908-1.45 1.581-3.223 2.02-5.319 0.446-2.091 0.55-4.092 0.312-6.005v0c-0.364-2.931-1.764-4.245-4.198-3.942v0c-1.356 0.169-2.514 0.964-3.473 2.386-0.959 1.422-1.651 3.124-2.076 5.105-0.42 1.974-0.527 3.784-0.323 5.432v0c0.118 0.953 0.443 1.806 0.973 2.559 0.524 0.755 1.135 1.323 1.835 1.707 0.698 0.377 1.362 0.526 1.99 0.448zM63.29 15.776c-1.519 0.15-2.978-0.04-4.378-0.572-1.405-0.524-2.614-1.262-3.625-2.214-1.012-0.952-1.769-1.935-2.271-2.95v0c-0.026-0.6 0.208-1.216 0.701-1.848 0.487-0.631 1.407-1.013 2.761-1.148v0c0.425-0.042 0.813 0.087 1.163 0.388 0.345 0.301 0.752 0.793 1.222 1.477v0c0.623 0.943 1.253 1.658 1.89 2.144 0.631 0.487 1.457 0.68 2.479 0.579v0c1.154-0.114 2.224-0.679 3.209-1.694 0.985-1.015 1.789-2.337 2.411-3.966 0.623-1.629 0.99-3.401 1.103-5.315v0c-0.631 1.067-1.392 1.91-2.283 2.527-0.89 0.624-1.746 0.977-2.568 1.058v0c-2.64 0.261-4.788-0.119-6.444-1.142-1.648-1.016-2.621-3.027-2.918-6.032v0c-0.268-2.713 0.231-5.315 1.5-7.805 1.274-2.491 3.097-4.557 5.466-6.198 2.371-1.635 4.992-2.594 7.865-2.878v0c1.884-0.186 3.318 0.057 4.303 0.73 0.984 0.666 1.632 1.57 1.946 2.712v0c0.583 0.204 0.904 0.436 0.964 0.698v0c0.01 0.1-0.022 0.454-0.096 1.065v0c-0.356 2.768-1.147 8.25-2.373 16.443v0l-0.332 2.234c-0.506 3.279-1.831 5.976-3.974 8.09-2.142 2.114-4.716 3.32-7.721 3.617zM71.576-14.757c-0.311-0.438-0.596-0.708-0.854-0.81-0.259-0.108-0.637-0.138-1.134-0.089v0c-1.552 0.153-3.006 0.803-4.36 1.949-1.353 1.152-2.395 2.575-3.125 4.268-0.738 1.687-1.023 3.374-0.856 5.059v0c0.121 1.221 0.448 2.257 0.98 3.108 0.539 0.844 1.309 1.284 2.311 1.319v0c1.297-0.363 2.486-1.08 3.566-2.151 1.073-1.077 1.749-2.397 2.03-3.959v0zM87.767 13.474c-1.522 0.115-2.977-0.109-4.363-0.672-1.393-0.556-2.584-1.322-3.574-2.297-0.99-0.975-1.724-1.975-2.203-3.002v0c-0.012-0.601 0.236-1.211 0.744-1.831 0.501-0.62 1.43-0.981 2.786-1.084v0c0.425-0.032 0.81 0.106 1.155 0.414 0.338 0.309 0.733 0.81 1.187 1.505v0c0.601 0.957 1.214 1.686 1.84 2.187 0.62 0.501 1.441 0.713 2.465 0.636v0c1.157-0.088 2.239-0.628 3.247-1.62 1.008-0.992 1.842-2.296 2.502-3.91 0.66-1.614 1.068-3.377 1.224-5.288v0c-0.656 1.053-1.436 1.877-2.34 2.474-0.904 0.603-1.768 0.936-2.592 0.999v0c-2.646 0.2-4.784-0.229-6.415-1.29-1.624-1.054-2.55-3.086-2.779-6.097v0c-0.206-2.719 0.353-5.309 1.678-7.769 1.331-2.461 3.2-4.485 5.608-6.071 2.408-1.58 5.051-2.479 7.929-2.697v0c1.888-0.143 3.316 0.133 4.285 0.829 0.968 0.689 1.596 1.607 1.883 2.756v0c0.578 0.217 0.894 0.457 0.947 0.72v0c0.008 0.1-0.032 0.454-0.12 1.062v0c-0.419 2.76-1.336 8.221-2.75 16.385v0l-0.383 2.225c-0.582 3.267-1.968 5.932-4.158 7.997-2.19 2.065-4.791 3.211-7.803 3.439zM96.752-16.861c-0.301-0.445-0.579-0.722-0.835-0.829-0.256-0.114-0.633-0.153-1.132-0.115v0c-1.556 0.118-3.023 0.734-4.403 1.848-1.379 1.121-2.453 2.519-3.223 4.195-0.776 1.67-1.1 3.349-0.972 5.038v0c0.093 1.223 0.396 2.267 0.909 3.13 0.52 0.857 1.28 1.314 2.28 1.372v0c1.305-0.333 2.51-1.022 3.614-2.069 1.097-1.053 1.804-2.356 2.121-3.911v0zM110.331-29.131c-0.061-1.025 0.208-1.956 0.806-2.793 0.599-0.83 1.477-1.279 2.636-1.347v0c1.231-0.073 2.322 0.244 3.271 0.948 0.957 0.711 1.464 1.546 1.521 2.505v0c0.057 0.965-0.357 1.821-1.241 2.568-0.884 0.753-1.941 1.166-3.173 1.239v0c-1.191 0.07-2.111-0.183-2.759-0.759-0.649-0.583-1.003-1.37-1.061-2.361zM116.071-20.645c-1.334 7.258-2.361 12.721-3.079 16.39v0c-0.095 0.54-0.124 1.123-0.087 1.748v0l0.132 1.395c0.033 0.559-0.12 0.965-0.459 1.219-0.332 0.253-1.06 0.43-2.182 0.53v0c-1.098 0.065-1.934-0.003-2.506-0.203-0.579-0.2-0.892-0.679-0.937-1.437v0c-0.022-0.366 0.286-2.331 0.924-5.895 0.638-3.557 1.519-8.197 2.644-13.92v0l-1.226-1.42c-0.106-0.094-0.163-0.207-0.17-0.341v0c-0.019-0.326 0.327-0.62 1.04-0.882 0.719-0.256 1.725-0.422 3.016-0.499v0c1.125-0.066 1.863 0.214 2.213 0.841 0.358 0.627 0.583 1.451 0.677 2.474zM128.956 0.618c-3.251 0.135-5.649-0.415-7.195-1.652-1.546-1.23-2.364-2.921-2.453-5.072v0c-0.131-3.151 0.533-6.101 1.993-8.851 1.466-2.757 3.482-4.976 6.048-6.658 2.572-1.682 5.384-2.586 8.434-2.713v0c1.858-0.077 3.439 0.377 4.741 1.363 1.302 0.993 1.996 2.502 2.08 4.528v0c0.048 1.159-0.285 2.127-1 2.904-0.715 0.777-1.756 1.484-3.124 2.122-1.368 0.638-3.589 1.551-6.662 2.74v0c-2.779 1.05-5.034 1.925-6.766 2.624v0c-0.112 0.505-0.157 1.024-0.135 1.557v0c0.039 0.926 0.458 1.622 1.258 2.089 0.8 0.46 1.913 0.661 3.338 0.602v0c0.899-0.037 1.921-0.26 3.064-0.669 1.144-0.415 1.854-0.911 2.13-1.49v0c1.04-2.098 2.023-3.167 2.949-3.205v0c1.365-0.057 2.299 0.161 2.8 0.654 0.501 0.493 0.781 1.055 0.841 1.686v0c-0.356 1.076-1.09 2.177-2.204 3.305-1.114 1.121-2.553 2.068-4.316 2.842-1.763 0.774-3.703 1.205-5.821 1.294zM126.25-12.681c3.24-1.196 5.903-2.294 7.99-3.296 2.08-1.001 3.102-1.948 3.064-2.84v0c-0.017-0.4-0.243-0.714-0.68-0.942-0.443-0.228-0.915-0.332-1.414-0.312v0c-0.992 0.041-2.112 0.468-3.36 1.281-1.24 0.819-2.387 1.798-3.44 2.936-1.047 1.138-1.767 2.195-2.16 3.173zM169.174-35.555c0.967-0.005 1.697 0.125 2.192 0.389 0.501 0.264 0.753 0.613 0.755 1.047v0c0.633-0.103 1.189-0.172 1.669-0.208 0.48-0.036 1.02-0.055 1.62-0.058v0c2.387-0.011 4.406 0.559 6.058 1.712 1.645 1.152 2.879 2.673 3.701 4.562 0.822 1.889 1.239 3.928 1.249 6.114v0c0.003 0.567-0.012 0.983-0.044 1.25v0c-0.281 3.981-1.261 7.493-2.94 10.535-1.679 3.048-3.898 5.408-6.657 7.081-2.765 1.673-5.875 2.518-9.328 2.534v0c-0.96 0.005-2.137-0.107-3.531-0.333v0c-0.534-0.097-1.159-0.451-1.876-1.061-0.716-0.61-1.323-1.314-1.82-2.112-0.504-0.791-0.757-1.503-0.76-2.136v0c-0.002-0.367 0.047-0.714 0.145-1.041v0l5.125-20.184c-1.884 0.569-3.471 1.306-4.759 2.212v0c-0.402-0.398-0.704-0.897-0.908-1.496-0.203-0.592-0.306-1.205-0.308-1.838v0c-0.003-0.727 0.294-1.375 0.891-1.944v0c1.555-1.001 3.708-1.858 6.458-2.571v0c0.619-1.63 1.642-2.448 3.068-2.454zM165.833-6.119c0.794 0.196 1.658 0.292 2.591 0.287v0c2.32-0.011 4.307-0.66 5.961-1.948 1.654-1.281 2.95-2.904 3.887-4.868 0.937-1.964 1.551-3.991 1.842-6.079v0c0.129-0.834 0.192-1.764 0.186-2.791v0c-0.011-2.327-0.536-4.158-1.576-5.492-1.033-1.342-2.63-2.008-4.789-1.998v0c-0.927 0.004-1.773 0.075-2.539 0.212v0c-0.581 2.589-1.817 7.655-3.708 15.198v0c-1.008 4.058-1.626 6.551-1.855 7.479zM206.402-3.642c0.049 0.868 0.15 1.65 0.302 2.346v0c-0.071 0.199-0.365 0.393-0.882 0.582-0.517 0.189-0.959 0.28-1.326 0.273v0c-1.193-0.024-2.043-0.218-2.549-0.582-0.513-0.357-0.762-0.882-0.748-1.575v0c0.014-0.667 0.094-1.328 0.241-1.986v0c-0.747 0.978-1.833 1.776-3.26 2.394-1.42 0.618-2.563 0.918-3.429 0.9v0c-2.22-0.045-4.056-0.73-5.509-2.052-1.447-1.323-2.141-3.411-2.083-6.264v0c0.055-2.693 0.743-5.209 2.065-7.55 1.328-2.347 3.133-4.22 5.415-5.62 2.289-1.394 4.81-2.062 7.563-2.006v0c0.533 0.011 1.227 0.165 2.081 0.462 0.861 0.298 1.724 0.795 2.59 1.493 0.859 0.698 1.578 1.586 2.156 2.665v0c0.267 0.005 0.581 0.142 0.942 0.409 0.354 0.274 0.529 0.544 0.524 0.811v0c-0.006 0.3-0.062 0.599-0.169 0.897v0zM204.446-17.625c-0.185-0.731-0.563-1.352-1.132-1.864-0.57-0.505-1.088-0.762-1.554-0.771v0c-1.526-0.031-2.97 0.476-4.332 1.521-1.368 1.052-2.482 2.367-3.341 3.943-0.866 1.576-1.313 3.077-1.343 4.504v0c-0.028 1.393 0.115 2.54 0.43 3.439 0.315 0.907 0.952 1.37 1.912 1.389v0c0.833 0.017 1.791-0.213 2.875-0.691 1.09-0.471 2.067-1.121 2.93-1.951 0.864-0.829 1.438-1.708 1.725-2.635v0zM226.029-2.366c-1.173 1.009-2.3 1.746-3.381 2.213-1.082 0.472-2.289 0.679-3.621 0.619v0c-2.185-0.097-3.836-0.854-4.954-2.272-1.119-1.411-1.628-3.242-1.528-5.493v0c0.03-0.666 0.162-1.391 0.397-2.174v0l3.913-12.829c0.232-0.724 0.613-1.247 1.141-1.571 0.528-0.324 1.372-0.46 2.53-0.408v0c1.725 0.077 2.566 0.594 2.524 1.553v0c-0.018 0.4-0.162 1.024-0.434 1.873v0l-3.918 13.179c-0.118 0.395-0.185 0.793-0.203 1.192v0c-0.031 0.693 0.127 1.264 0.474 1.713 0.34 0.449 0.91 0.691 1.71 0.726v0c1.026 0.046 2.148-0.205 3.366-0.751 1.219-0.546 2.264-1.231 3.134-2.053v0l1.124-3.884c0.744-2.63 1.601-5.464 2.57-8.504v0c0.419-1.316 0.937-2.384 1.553-3.205 0.623-0.813 1.564-1.192 2.824-1.135v0c1.758 0.078 2.614 0.647 2.566 1.705v0c-0.007 0.167-0.06 0.371-0.157 0.614-0.091 0.243-0.157 0.447-0.197 0.612v0l-1.951 6.74c-2.039 7.15-3.37 11.725-3.993 13.726v0c-1.013 3.278-2.108 5.839-3.284 7.682-1.176 1.836-2.602 3.134-4.277 3.894-1.682 0.753-3.798 1.073-6.349 0.959v0c-1.625-0.072-2.95-0.361-3.976-0.867-1.025-0.513-1.762-1.113-2.212-1.8-0.45-0.681-0.663-1.304-0.638-1.87v0c0.072-1.625 1.004-2.398 2.796-2.318v0c0.493 0.022 0.895 0.14 1.206 0.354 0.304 0.214 0.615 0.511 0.931 0.892v0c0.472 0.481 0.913 0.848 1.322 1.1 0.403 0.251 0.967 0.393 1.693 0.425v0c0.566 0.025 1.209-0.18 1.929-0.615 0.713-0.429 1.425-1.128 2.136-2.097 0.703-0.963 1.305-2.181 1.803-3.654v0zM278.207-5.338c-0.614 1.448-1.719 2.863-3.317 4.243-1.592 1.388-3.544 2.479-5.857 3.273-2.313 0.794-4.794 1.082-7.445 0.865v0c-4.033-0.33-6.912-1.559-8.638-3.687-1.719-2.121-2.453-4.719-2.201-7.795v0c0.357-4.365 1.655-8.246 3.893-11.641 2.245-3.395 5.104-5.973 8.579-7.736 3.475-1.762 7.13-2.486 10.964-2.173v0c1.522 0.125 2.882 0.584 4.081 1.378 1.199 0.8 2.11 1.882 2.735 3.244 0.617 1.368 0.854 2.929 0.71 4.683v0c-0.081 0.99-0.522 1.803-1.324 2.441-0.801 0.63-1.829 0.894-3.084 0.79v0c-0.99-0.081-1.636-0.398-1.939-0.951-0.309-0.56-0.429-1.256-0.361-2.086v0l0.179-1.581c0.048-0.591-0.233-1.196-0.844-1.815-0.618-0.619-1.206-0.952-1.765-0.997v0c-1.854-0.152-3.959 0.519-6.315 2.011-2.349 1.487-4.4 3.583-6.154 6.289-1.753 2.699-2.765 5.703-3.035 9.012v0c-0.125 1.522 0.369 2.809 1.479 3.864 1.11 1.061 2.576 1.666 4.397 1.815v0c0.598 0.049 1.392-0.087 2.381-0.407 0.989-0.32 1.914-0.743 2.773-1.268 0.86-0.532 1.445-1.069 1.757-1.612v0c0.466-0.791 1.103-1.669 1.912-2.633 0.815-0.97 1.585-1.425 2.309-1.366v0c1.688 0.138 2.807 0.598 3.358 1.379 0.552 0.774 0.809 1.595 0.772 2.461zM300.083 3.065c-0.026 0.869 0.006 1.657 0.098 2.364v0c-0.088 0.192-0.397 0.36-0.929 0.503-0.532 0.144-0.98 0.196-1.344 0.158v0c-1.187-0.127-2.016-0.394-2.489-0.801-0.48-0.4-0.683-0.945-0.609-1.634v0c0.071-0.663 0.208-1.315 0.411-1.957v0c-0.829 0.91-1.98 1.611-3.454 2.103-1.468 0.493-2.632 0.693-3.494 0.6v0c-2.207-0.237-3.978-1.078-5.311-2.521-1.327-1.443-1.838-3.583-1.533-6.421v0c0.288-2.678 1.191-5.125 2.709-7.342 1.526-2.223 3.487-3.934 5.882-5.132 2.401-1.19 4.97-1.639 7.707-1.344v0c0.53 0.057 1.208 0.271 2.034 0.64 0.832 0.371 1.649 0.941 2.451 1.712 0.796 0.769 1.435 1.716 1.917 2.841v0c0.265 0.028 0.566 0.192 0.903 0.489 0.329 0.304 0.48 0.588 0.452 0.853v0c-0.032 0.298-0.114 0.591-0.245 0.879v0zM299.345-11.035c-0.121-0.744-0.444-1.395-0.967-1.954-0.524-0.552-1.018-0.854-1.482-0.904v0c-1.518-0.163-3 0.218-4.448 1.142-1.454 0.93-2.677 2.143-3.669 3.639-0.999 1.495-1.574 2.952-1.727 4.371v0c-0.149 1.385-0.105 2.54 0.131 3.463 0.235 0.93 0.83 1.447 1.785 1.55v0c0.829 0.089 1.803-0.058 2.924-0.44 1.127-0.375 2.156-0.938 3.088-1.69 0.932-0.751 1.581-1.577 1.945-2.477v0zM311.428 5.159c-0.059 0.194-0.182 0.571-0.37 1.132-0.194 0.56-0.527 0.926-1 1.1-0.473 0.174-1.189 0.198-2.148 0.073v0c-1.084-0.141-1.859-0.36-2.324-0.656-0.459-0.295-0.639-0.823-0.54-1.583v0l3.596-9.112c2.023-5.263 3.346-8.607 3.969-10.031v0l-1.047-1.639c-0.086-0.112-0.121-0.234-0.103-0.366v0c0.043-0.331 0.442-0.554 1.196-0.672 0.748-0.118 1.763-0.093 3.046 0.074v0c1.157 0.151 1.889 0.572 2.195 1.265 0.313 0.693 0.453 1.555 0.42 2.585v0l-0.515 1.244c1.219-1.152 2.584-2.057 4.095-2.714 1.51-0.65 2.807-0.905 3.891-0.763v0c1.415 0.184 2.484 0.572 3.207 1.163 0.729 0.599 1.042 1.292 0.939 2.079v0c-0.09 0.694-0.422 1.38-0.994 2.059-0.579 0.678-1.262 1.224-2.049 1.639-0.793 0.414-1.538 0.61-2.235 0.586v0c-0.661-0.086-1.097-0.227-1.306-0.422-0.203-0.195-0.284-0.454-0.242-0.778v0l0.501-1.598c-2.726 0.385-5.336 1.819-7.831 4.304v0zM334.262 11.27c-3.217-0.482-5.468-1.477-6.752-2.983-1.285-1.5-1.768-3.315-1.449-5.445v0c0.467-3.119 1.678-5.89 3.632-8.314 1.962-2.429 4.361-4.227 7.198-5.392 2.844-1.165 5.776-1.521 8.796-1.069v0c1.839 0.276 3.305 1.021 4.397 2.236 1.091 1.222 1.486 2.835 1.186 4.84v0c-0.172 1.147-0.682 2.035-1.531 2.662-0.849 0.628-2.006 1.125-3.47 1.492-1.464 0.367-3.817 0.844-7.06 1.43v0c-2.927 0.505-5.307 0.937-7.141 1.296v0c-0.206 0.475-0.348 0.976-0.427 1.503v0c-0.137 0.916 0.143 1.68 0.84 2.29 0.698 0.603 1.753 1.011 3.164 1.223v0c0.89 0.133 1.935 0.108 3.136-0.077 1.202-0.191 1.993-0.544 2.373-1.06v0c1.419-1.864 2.586-2.727 3.502-2.589v0c1.352 0.203 2.227 0.593 2.626 1.172 0.399 0.579 0.568 1.184 0.506 1.815v0c-0.553 0.989-1.483 1.932-2.79 2.828-1.306 0.89-2.898 1.548-4.775 1.974-1.877 0.427-3.864 0.483-5.961 0.168zM334.122-2.3c3.407-0.561 6.23-1.136 8.469-1.724 2.232-0.589 3.414-1.325 3.546-2.209v0c0.059-0.396-0.104-0.747-0.489-1.054-0.392-0.308-0.835-0.499-1.33-0.574v0c-0.982-0.147-2.163 0.06-3.541 0.622-1.373 0.57-2.684 1.313-3.934 2.232-1.243 0.919-2.15 1.821-2.721 2.707z" opacity="1" transform="matrix(1,0,0,1,0,0)" fill="#ea3c12" class="undefined-text-0" data-fill-palette-color="primary" id="text-0"></path></svg></g></svg></g><g transform="matrix(1,0,0,1,118.31980800000001,63.12997163822095)"><svg viewBox="0 0 158.88038400000002 23.700731019338743" height="23.700731019338743" width="158.88038400000002"><g transform="matrix(1,0,0,1,0,0)"><svg width="158.88038400000002" viewBox="4.199999809265137 -36.040000915527344 313.04998779296875 46.709999084472656" height="23.700731019338743" data-palette-color="#ea3c12"><path d="M12.23 0L4.2 0 4.2-35.55 12.57-35.55Q18.36-35.55 21.73-31.85 25.1-28.15 25.2-21.66L25.2-21.66 25.2-14.21Q25.2-7.52 21.79-3.76 18.38 0 12.23 0L12.23 0ZM12.5-32.91L6.98-32.91 6.98-2.59 12.38-2.59Q17.14-2.59 19.75-5.53 22.36-8.47 22.44-13.94L22.44-13.94 22.44-21.39Q22.44-26.86 19.89-29.88 17.33-32.91 12.5-32.91L12.5-32.91ZM31.08-11.43L31.08-14.55Q31.08-20.26 33.66-23.58 36.25-26.9 40.72-26.9L40.72-26.9Q45.21-26.9 47.79-23.63 50.36-20.36 50.39-14.62L50.39-14.62 50.39-11.82Q50.39-6.01 47.79-2.76 45.19 0.49 40.77 0.49 36.35 0.49 33.76-2.69 31.17-5.86 31.08-11.43L31.08-11.43ZM33.81-14.75L33.81-11.82Q33.81-7.25 35.65-4.64 37.5-2.03 40.77-2.03L40.77-2.03Q44.11-2.03 45.88-4.54 47.65-7.06 47.68-11.74L47.68-11.74 47.68-14.55Q47.68-19.12 45.82-21.74 43.97-24.37 40.72-24.37L40.72-24.37Q37.57-24.37 35.72-21.8 33.86-19.24 33.81-14.75L33.81-14.75ZM55.68-11.57L55.68-14.43Q55.68-20.68 57.83-23.79 59.98-26.9 64.28-26.9L64.28-26.9Q68.84-26.9 71.06-22.73L71.06-22.73 71.21-26.42 73.73-26.42 73.73 0.76Q73.7 5.54 71.44 8.03 69.18 10.52 64.86 10.52L64.86 10.52Q62.69 10.52 60.48 9.46 58.27 8.4 57.12 6.86L57.12 6.86 58.39 4.91Q61.1 8.01 64.67 8.01L64.67 8.01Q67.96 8.01 69.47 6.25 70.97 4.49 70.99 0.9L70.99 0.9 70.99-3.3Q68.77 0.49 64.25 0.49L64.25 0.49Q60.13 0.49 57.94-2.61 55.76-5.71 55.68-11.57L55.68-11.57ZM58.42-14.6L58.42-11.96Q58.42-6.88 59.96-4.49 61.49-2.1 64.79-2.1L64.79-2.1Q69.18-2.1 70.99-6.27L70.99-6.27 70.99-19.78Q69.16-24.29 64.84-24.29L64.84-24.29Q61.52-24.29 59.98-21.92 58.44-19.56 58.42-14.6L58.42-14.6ZM80-11.57L80-14.43Q80-20.68 82.15-23.79 84.29-26.9 88.59-26.9L88.59-26.9Q93.16-26.9 95.38-22.73L95.38-22.73 95.52-26.42 98.04-26.42 98.04 0.76Q98.01 5.54 95.76 8.03 93.5 10.52 89.18 10.52L89.18 10.52Q87 10.52 84.79 9.46 82.59 8.4 81.44 6.86L81.44 6.86 82.71 4.91Q85.42 8.01 88.98 8.01L88.98 8.01Q92.28 8.01 93.78 6.25 95.28 4.49 95.31 0.9L95.31 0.9 95.31-3.3Q93.08 0.49 88.57 0.49L88.57 0.49Q84.44 0.49 82.26-2.61 80.07-5.71 80-11.57L80-11.57ZM82.73-14.6L82.73-11.96Q82.73-6.88 84.27-4.49 85.81-2.1 89.1-2.1L89.1-2.1Q93.5-2.1 95.31-6.27L95.31-6.27 95.31-19.78Q93.47-24.29 89.15-24.29L89.15-24.29Q85.83-24.29 84.29-21.92 82.76-19.56 82.73-14.6L82.73-14.6ZM108.29-26.42L108.29 0 105.56 0 105.56-26.42 108.29-26.42ZM105.17-34.03L105.17-34.03Q105.17-34.86 105.63-35.45 106.09-36.04 106.95-36.04 107.8-36.04 108.28-35.45 108.75-34.86 108.75-34.03 108.75-33.2 108.28-32.63 107.8-32.06 106.95-32.06 106.09-32.06 105.63-32.63 105.17-33.2 105.17-34.03ZM124.5 0.49L124.5 0.49Q119.84 0.49 117.2-2.56 114.56-5.62 114.51-11.25L114.51-11.25 114.51-14.48Q114.51-20.29 117.05-23.6 119.59-26.9 124.04-26.9L124.04-26.9Q128.33-26.9 130.59-24.1 132.85-21.29 132.9-15.5L132.9-15.5 132.9-12.96 117.2-12.96 117.2-11.47Q117.2-6.93 119.14-4.47 121.08-2 124.62-2L124.62-2Q128.53-2 130.94-4.86L130.94-4.86 132.36-3.05Q129.77 0.49 124.5 0.49ZM124.04-24.37L124.04-24.37Q120.84-24.37 119.12-22.11 117.39-19.85 117.22-15.5L117.22-15.5 130.19-15.5 130.19-16.21Q129.99-24.37 124.04-24.37ZM158.5 0L150.47 0 150.47-35.55 158.84-35.55Q164.63-35.55 168-31.85 171.37-28.15 171.47-21.66L171.47-21.66 171.47-14.21Q171.47-7.52 168.06-3.76 164.66 0 158.5 0L158.5 0ZM158.77-32.91L153.25-32.91 153.25-2.59 158.65-2.59Q163.41-2.59 166.02-5.53 168.63-8.47 168.71-13.94L168.71-13.94 168.71-21.39Q168.71-26.86 166.16-29.88 163.61-32.91 158.77-32.91L158.77-32.91ZM195.22 0L192.34 0Q191.97-1.27 191.85-3.66L191.85-3.66Q190.63-1.68 188.71-0.6 186.8 0.49 184.55 0.49L184.55 0.49Q181.13 0.49 179.23-1.44 177.32-3.37 177.32-6.93L177.32-6.93Q177.32-10.82 179.97-13.09 182.62-15.36 187.28-15.38L187.28-15.38 191.83-15.38 191.83-19.07Q191.83-21.9 190.42-23.13 189.02-24.37 186.31-24.37L186.31-24.37Q183.79-24.37 182.18-22.9 180.57-21.44 180.57-19.12L180.57-19.12 177.86-19.14Q177.86-22.39 180.3-24.65 182.74-26.9 186.43-26.9L186.43-26.9Q190.41-26.9 192.46-24.9 194.51-22.9 194.51-19.07L194.51-19.07 194.51-6.1Q194.51-2.22 195.22-0.29L195.22-0.29 195.22 0ZM184.89-2.12L184.89-2.12Q187.28-2.12 189.13-3.37 190.97-4.61 191.83-6.69L191.83-6.69 191.83-13.11 187.53-13.11Q183.82-13.06 181.94-11.46 180.06-9.86 180.06-7.15L180.06-7.15Q180.06-2.12 184.89-2.12ZM202-26.42L208.57-4.47 214.87-26.42 217.78-26.42 208.47 4.22 207.96 5.69Q206.08 10.67 202.2 10.67L202.2 10.67Q201.27 10.67 200.25 10.33L200.25 10.33 200.22 7.84Q200.78 8.01 201.47 8.01L201.47 8.01Q203.22 8.01 204.35 6.96 205.47 5.91 206.2 3.56L206.2 3.56 207.33-0.17 199.03-26.42 202-26.42ZM252.76-11.08L255.59-11.08Q255.2-5.1 252.37-2.31 249.53 0.49 244.53 0.49L244.53 0.49Q239.38 0.49 236.4-3.41 233.42-7.3 233.4-13.99L233.4-13.99 233.4-21.7Q233.4-28.42 236.43-32.23 239.47-36.04 244.75-36.04L244.75-36.04Q249.73-36.04 252.46-33.18 255.2-30.32 255.59-24.41L255.59-24.41 252.76-24.41Q252.37-29.25 250.47-31.32 248.58-33.4 244.75-33.4L244.75-33.4Q240.72-33.4 238.47-30.4 236.23-27.39 236.23-21.68L236.23-21.68 236.23-14.06Q236.23-8.4 238.4-5.25 240.57-2.1 244.53-2.1L244.53-2.1Q248.68-2.1 250.53-4.17 252.39-6.25 252.76-11.08L252.76-11.08ZM278.8 0L275.92 0Q275.56-1.27 275.43-3.66L275.43-3.66Q274.21-1.68 272.3-0.6 270.38 0.49 268.13 0.49L268.13 0.49Q264.72 0.49 262.81-1.44 260.91-3.37 260.91-6.93L260.91-6.93Q260.91-10.82 263.56-13.09 266.21-15.36 270.87-15.38L270.87-15.38 275.41-15.38 275.41-19.07Q275.41-21.9 274.01-23.13 272.6-24.37 269.89-24.37L269.89-24.37Q267.38-24.37 265.77-22.9 264.15-21.44 264.15-19.12L264.15-19.12 261.44-19.14Q261.44-22.39 263.89-24.65 266.33-26.9 270.01-26.9L270.01-26.9Q273.99-26.9 276.04-24.9 278.1-22.9 278.1-19.07L278.1-19.07 278.1-6.1Q278.1-2.22 278.8-0.29L278.8-0.29 278.8 0ZM268.48-2.12L268.48-2.12Q270.87-2.12 272.71-3.37 274.55-4.61 275.41-6.69L275.41-6.69 275.41-13.11 271.11-13.11Q267.4-13.06 265.52-11.46 263.64-9.86 263.64-7.15L263.64-7.15Q263.64-2.12 268.48-2.12ZM295.89-26.59L295.84-23.88Q294.86-24.05 294.13-24.05L294.13-24.05Q291.89-24.05 290.36-22.51 288.83-20.97 288.2-18.24L288.2-18.24 288.2 0 285.49 0 285.49-26.42 288.15-26.42 288.2-22.46Q290.13-26.9 294.25-26.9L294.25-26.9Q295.33-26.9 295.89-26.59L295.89-26.59ZM308.85 0.49L308.85 0.49Q304.19 0.49 301.55-2.56 298.92-5.62 298.87-11.25L298.87-11.25 298.87-14.48Q298.87-20.29 301.41-23.6 303.94-26.9 308.39-26.9L308.39-26.9Q312.68-26.9 314.94-24.1 317.2-21.29 317.25-15.5L317.25-15.5 317.25-12.96 301.55-12.96 301.55-11.47Q301.55-6.93 303.49-4.47 305.43-2 308.97-2L308.97-2Q312.88-2 315.3-4.86L315.3-4.86 316.71-3.05Q314.13 0.49 308.85 0.49ZM308.39-24.37L308.39-24.37Q305.19-24.37 303.47-22.11 301.75-19.85 301.58-15.5L301.58-15.5 314.54-15.5 314.54-16.21Q314.34-24.37 308.39-24.37Z" opacity="1" transform="matrix(1,0,0,1,0,0)" fill="#ea3c12" class="undefined-text-1" data-fill-palette-color="secondary" id="text-1"></path></svg></g></svg></g></svg></g></svg></g><g transform="matrix(1,0,0,1,114.27098163778551,0)"><svg viewBox="0 0 166.97803672442902 140.4920768999316" height="140.4920768999316" width="166.97803672442902"><g><svg xmlns="http://www.w3.org/2000/svg" xmlns:xlink="http://www.w3.org/1999/xlink" version="1.1" x="0" y="0" viewBox="5.06099796295166 11.851000785827637 90.052001953125 75.76800537109375" enable-background="new 0 0 100 100" xml:space="preserve" height="140.4920768999316" width="166.97803672442902" class="icon-icon-0" data-fill-palette-color="accent" id="icon-0"><g display="none" fill="#ea3c12" data-fill-palette-color="accent"><rect display="inline" fill="#ea3c12" width="100.13" height="100.12" data-fill-palette-color="accent"></rect></g><g display="none" fill="#ea3c12" data-fill-palette-color="accent"><g display="inline" fill="#ea3c12" data-fill-palette-color="accent"><g fill="#ea3c12" data-fill-palette-color="accent"><path d="M73.184 23.658c-1.625-6.099-5.576-11.248-11.049-14.399-3.638-2.102-7.708-3.187-11.821-3.187-2.062 0-4.137 0.271-6.173 0.818-6.096 1.629-11.245 5.579-14.399 11.051-2.105 3.636-3.187 7.707-3.187 11.821 0 2.065 0.275 4.139 0.818 6.172 0.882 3.261 3.822 5.419 7.058 5.417 0.623 0 1.259-0.079 1.892-0.249 3.259-0.88 5.422-3.816 5.419-7.055 0-0.624-0.08-1.263-0.25-1.897-0.212-0.791-0.314-1.58-0.314-2.369 0-1.574 0.408-3.114 1.227-4.532 1.237-2.125 3.15-3.598 5.522-4.24 0.788-0.214 1.582-0.314 2.373-0.314 1.57 0 3.108 0.405 4.525 1.224 2.126 1.234 3.598 3.154 4.24 5.525 0.209 0.789 0.314 1.586 0.316 2.377-0.005 1.564-0.41 3.105-1.227 4.523L29.536 83.92c-0.665 1.13-0.982 2.396-0.982 3.636 0 0 0 0.007 0 0.025v0.001c0 1.974 0.811 3.906 2.288 5.301l-0.1 0.172 1.467 0.849c0.036 0.021 0.072 0.04 0.107 0.06l1.36 0.785 0.099-0.173c0.68 0.202 1.378 0.303 2.071 0.303l0.014 0.002h0.014c2.515 0 4.969-1.314 6.32-3.655l28.623-49.57C72.913 38.01 74 33.944 74 29.829 74 27.769 73.729 25.695 73.184 23.658zM68.514 20.806c-0.228-0.463-0.484-0.909-0.746-1.352C68.028 19.897 68.286 20.342 68.514 20.806zM30.469 25.25c-0.28 1.212-0.448 2.445-0.498 3.688C30.023 27.694 30.189 26.461 30.469 25.25zM35.441 37.831c-0.333 0.088-0.672 0.133-1.01 0.133-1.731-0.002-3.313-1.153-3.785-2.909-0.469-1.748-0.702-3.526-0.702-5.292 0-0.267 0.016-0.532 0.026-0.797-0.048 1.278 0.024 2.566 0.219 3.849l7.654-1.997c-0.018-0.213-0.022-0.426-0.029-0.639 0.031 0.951 0.152 1.907 0.407 2.854 0.089 0.335 0.133 0.674 0.133 1.015C38.353 35.777 37.202 37.357 35.441 37.831zM37.815 29.367c0.009-0.276 0.027-0.551 0.054-0.826C37.842 28.815 37.825 29.091 37.815 29.367zM37.926 28.01c0.058-0.399 0.141-0.794 0.237-1.187C38.066 27.215 37.984 27.611 37.926 28.01zM38.279 26.381c0.119-0.416 0.257-0.828 0.42-1.232C38.536 25.554 38.398 25.965 38.279 26.381zM38.825 24.858c0.191-0.442 0.4-0.879 0.645-1.303 0-0.001 0.001-0.002 0.002-0.003C39.226 23.977 39.018 24.415 38.825 24.858zM50.3 17.305c-1.084 0-2.177 0.143-3.255 0.434-2.865 0.766-5.313 2.5-6.989 4.906l-9.561 2.494c0.452-1.907 1.174-3.76 2.182-5.502 1.097-1.9 2.478-3.568 4.067-4.991-0.149 0.133-0.302 0.262-0.447 0.399l18.963-4.947c-3.328-0.847-6.831-0.847-10.239 0.066-0.025 0.007-0.049 0.016-0.075 0.022 0.024-0.006 0.047-0.017 0.072-0.023 1.754-0.471 3.53-0.702 5.296-0.702 3.518 0 6.997 0.924 10.126 2.732 2.968 1.712 5.4 4.093 7.146 6.932-0.674-1.091-1.449-2.115-2.317-3.059L55.7 18.563c0.253 0.123 0.505 0.249 0.754 0.389C54.55 17.866 52.436 17.305 50.3 17.305zM43.349 10.7c-0.154 0.056-0.308 0.111-0.46 0.171C43.042 10.811 43.195 10.755 43.349 10.7zM41.377 11.525c-0.138 0.067-0.271 0.143-0.408 0.213C41.105 11.667 41.239 11.592 41.377 11.525zM39.852 12.358c-0.167 0.099-0.334 0.196-0.498 0.3C39.518 12.554 39.686 12.457 39.852 12.358zM38.106 13.521c-0.178 0.133-0.35 0.273-0.523 0.412C37.757 13.794 37.929 13.654 38.106 13.521zM56.613 19.044c0.29 0.171 0.572 0.353 0.845 0.545C57.185 19.397 56.903 19.215 56.613 19.044zM58.69 20.58c0.153 0.139 0.3 0.283 0.444 0.429C58.99 20.863 58.844 20.719 58.69 20.58zM57.782 19.831c0.189 0.142 0.375 0.288 0.555 0.44C58.157 20.119 57.972 19.973 57.782 19.831zM33.385 90.602c0.139 0.115 0.289 0.221 0.447 0.316C33.673 90.822 33.525 90.716 33.385 90.602zM35.847 91.49c-0.096 0-0.193-0.012-0.291-0.019 0.145 0.011 0.288 0.016 0.432 0.011-0.038 0.002-0.075 0.008-0.113 0.008H35.847zM33.984 91.006c0.174 0.096 0.353 0.174 0.534 0.24C34.337 91.18 34.158 91.102 33.984 91.006zM34.742 91.322c0.179 0.054 0.36 0.096 0.542 0.123C35.103 91.418 34.922 91.376 34.742 91.322zM38.295 90.645c0.148-0.117 0.287-0.247 0.418-0.387C38.582 90.397 38.443 90.527 38.295 90.645zM36.272 91.465c0.161-0.018 0.32-0.044 0.477-0.08C36.592 91.421 36.434 91.448 36.272 91.465zM37.013 91.313c0.155-0.048 0.306-0.104 0.454-0.17C37.319 91.21 37.168 91.266 37.013 91.313zM37.686 91.038c0.164-0.086 0.324-0.182 0.476-0.292C38.009 90.856 37.85 90.952 37.686 91.038zM38.863 90.09c0.123-0.147 0.237-0.305 0.34-0.473C39.1 89.786 38.986 89.942 38.863 90.09zM62.562 49.173l-10.658 2.781-5.18 8.972 10.659-2.78-5.832 10.101-10.658 2.78-4.775 8.27 10.656-2.778-5.831 10.099-8.749 2.282c0.218 0.607 0.583 1.162 1.079 1.607-0.792-0.697-1.259-1.672-1.322-2.686l0.027-0.084-0.036-0.277c0.016-0.627 0.188-1.268 0.521-1.836L61.09 36.037c0.12-0.208 0.209-0.427 0.316-0.64-0.107 0.213-0.194 0.434-0.314 0.643l-3.356 5.812 10.597-2.764c1.168-2.266 1.895-4.686 2.157-7.163-0.294 2.795-1.165 5.525-2.608 8.038L62.562 49.173zM59.497 21.38c0.105 0.115 0.202 0.237 0.302 0.355C59.698 21.617 59.603 21.495 59.497 21.38zM60.595 22.781c0.04 0.06 0.084 0.118 0.123 0.179C60.679 22.899 60.635 22.841 60.595 22.781zM70.489 31.919c0.038-0.353 0.065-0.707 0.084-1.061l-8.226 2.146c0.278-1.041 0.42-2.11 0.422-3.185-0.003-1.089-0.145-2.179-0.43-3.25-0.183-0.684-0.432-1.338-0.721-1.971 0.002 0.004 0.005 0.009 0.007 0.013l7.668-2c0.234 0.626 0.439 1.267 0.614 1.921 0.471 1.754 0.701 3.53 0.701 5.296C70.609 30.529 70.562 31.225 70.489 31.919zM61.136 23.654c0.033 0.059 0.066 0.118 0.099 0.178C61.202 23.772 61.169 23.713 61.136 23.654z" fill="#ea3c12" data-fill-palette-color="accent"></path></g></g></g><g display="none" fill="#ea3c12" data-fill-palette-color="accent"><g display="inline" fill="#ea3c12" data-fill-palette-color="accent"><g fill="#ea3c12" data-fill-palette-color="accent"><path d="M94.989 19.581c0.002-4.529-1.055-7.934-3.164-10.234-2.109-2.303-5.086-3.19-8.108-3.177-7.831 0.074-17.25 5.25-23.746 9.922-3.305-0.894-6.768-1.385-10.343-1.382-0.001 0-0.028-0.002-0.1 0-3.285 0.009-6.482 0.422-9.546 1.188-6.49-4.63-15.736-9.653-23.45-9.725-3.03-0.01-6.005 0.875-8.12 3.18-2.108 2.3-3.168 5.705-3.166 10.234 0.007 5.496 1.521 12.805 5.02 22.645-1.645 4.238-2.569 8.735-2.589 13.372-0.017 0.053-0.015 0.151 0 0.275 0.096 21.038 18.911 38.133 41.863 38.31 22.518-0.162 41.032-16.614 41.865-37.106l0.031-0.01v-1.377c0-4.12-0.71-8.125-2.006-11.94C93.313 33.138 94.981 25.355 94.989 19.581zM73.799 58.601c0.157 0.931 0.969 1.592 1.884 1.592 0.105 0 0.214-0.008 0.324-0.028l11.492-1.952c-0.138 1.729-0.42 3.425-0.836 5.08l-11.298 1.921c-1.042 0.177-1.743 1.166-1.567 2.207 0.16 0.932 0.971 1.592 1.889 1.592 0.105 0 0.213-0.007 0.32-0.025l9.328-1.589C80.04 80.56 66.068 90.235 49.543 90.362c-16.604-0.136-30.63-9.905-35.852-23.147l10.407 1.771c0.108 0.019 0.215 0.028 0.322 0.028 0.917 0 1.728-0.661 1.886-1.592 0.177-1.044-0.524-2.033-1.567-2.21l-12.23-2.079c-0.041-0.007-0.081-0.004-0.122-0.008-0.405-1.659-0.675-3.359-0.8-5.089l12.511 2.127c0.108 0.019 0.216 0.028 0.322 0.028 0.917 0 1.728-0.658 1.886-1.592 0.177-1.041-0.524-2.03-1.567-2.208l-13.188-2.241c0.194-3.844 1.069-7.585 2.529-11.158l0.279-0.68-0.25-0.692c-3.594-9.942-5.044-17.143-5.037-22.036 0-3.976 0.928-6.318 2.155-7.642 1.221-1.32 2.933-1.931 5.304-1.944 6.266-0.074 15.881 4.977 21.922 9.512l0.746 0.555 0.9-0.248c2.43-0.665 4.953-1.072 7.544-1.216v4.124H35.568c-1.06 0-1.916 0.858-1.916 1.915 0 1.054 0.855 1.912 1.916 1.912h12.076v3.826H35.568c-1.06 0-1.916 0.855-1.916 1.912 0 1.057 0.855 1.915 1.916 1.915h12.076v3.825H35.568c-1.06 0-1.916 0.855-1.916 1.913 0 1.058 0.855 1.912 1.916 1.912h12.076v3.922c0 1.056 0.856 1.913 1.913 1.913 1.058 0 1.912-0.857 1.912-1.913v-3.922h12.3c1.059 0 1.913-0.854 1.913-1.912 0-1.057-0.854-1.913-1.913-1.913h-12.3v-3.825h12.3c1.059 0 1.913-0.858 1.913-1.915 0-1.057-0.854-1.912-1.913-1.912h-12.3v-3.826h12.3c1.059 0 1.913-0.857 1.913-1.912 0-1.057-0.854-1.915-1.913-1.915h-12.3v-4.124c2.871 0.151 5.661 0.628 8.338 1.418l0.919 0.271 0.767-0.577c6.022-4.569 15.854-9.798 22.225-9.722 2.366 0.014 4.073 0.625 5.293 1.942 1.224 1.323 2.151 3.668 2.151 7.645 0.01 5.128-1.583 12.792-5.557 23.488l-0.241 0.653 0.236 0.66c1.15 3.202 1.831 6.526 1.979 9.936l-12.214 2.076C74.322 56.57 73.621 57.557 73.799 58.601zM64.392 72.068c-1.056 0-1.911 0.856-1.911 1.912 0.082 0.635-0.801 1.985-3.232 3.089-1.956 0.904-4.698 1.563-7.779 1.76v-9.135c2.054-1.839 4.68-3.749 6.165-5.635 0.386-0.497 0.467-1.163 0.212-1.738-0.254-0.575-0.798-0.964-1.423-1.021-2.289-0.193-4.58-0.291-6.866-0.291-2.29 0-4.58 0.098-6.866 0.291-0.628 0.058-1.169 0.446-1.424 1.021-0.254 0.575-0.173 1.241 0.211 1.738 1.486 1.885 4.112 3.796 6.166 5.635v9.134c-3.084-0.196-5.825-0.854-7.78-1.759-2.43-1.104-3.314-2.454-3.232-3.089 0-1.056-0.856-1.912-1.913-1.912-1.056 0-1.912 0.856-1.912 1.912 0.078 3.131 2.519 5.198 5.458 6.563 3.018 1.383 6.951 2.17 11.293 2.175 4.335-0.005 8.27-0.792 11.286-2.175 2.94-1.365 5.38-3.433 5.462-6.563C66.307 72.925 65.448 72.068 64.392 72.068zM17.147 33.22c-0.007 0.217 4.18-7.562 13.63-10.992C23.853 15.842 8.472 8.682 17.147 33.22zM82.812 33.22c8.674-24.538-6.706-17.379-13.63-10.992C78.634 25.658 82.82 33.438 82.812 33.22zM35.658 55.232c2.203 0 3.986-1.783 3.986-3.984 0-2.202-1.783-3.988-3.986-3.988-0.551 0-1.076 0.112-1.553 0.314l-4.712-1.251 2.328 4.437c-0.02 0.162-0.049 0.321-0.049 0.488C31.671 53.449 33.457 55.232 35.658 55.232zM65.324 47.575c-0.478-0.202-1.002-0.314-1.554-0.314-2.202 0-3.986 1.786-3.986 3.988 0 2.201 1.784 3.984 3.986 3.984s3.986-1.783 3.986-3.984c0-0.167-0.029-0.325-0.049-0.486l2.328-4.438L65.324 47.575z" fill="#ea3c12" data-fill-palette-color="accent"></path></g></g></g><g display="none" fill="#ea3c12" data-fill-palette-color="accent"><g display="inline" fill="#ea3c12" data-fill-palette-color="accent"><g fill="#ea3c12" data-fill-palette-color="accent"><path d="M35.784 45.171c-1.649 0-2.985 1.336-2.985 2.985 0 1.649 1.336 2.985 2.985 2.985 1.648 0 2.984-1.336 2.984-2.985C38.769 46.508 37.432 45.171 35.784 45.171zM64.818 45.171c-1.648 0-2.984 1.336-2.984 2.985 0 1.649 1.336 2.985 2.984 2.985s2.984-1.336 2.984-2.985C67.803 46.508 66.467 45.171 64.818 45.171zM89.4 14.458c-3.6-3.36-8.541-5.121-13.928-5.118-0.078 0.002-0.15 0.002-0.217 0.003-0.113-0.003-0.205-0.001-0.268-0.001-5.387-0.005-10.328 1.755-13.93 5.118-1.228 1.142-2.277 2.476-3.139 3.968-2.462-0.699-5.016-1.101-7.64-1.136-2.698 0.036-5.321 0.458-7.846 1.191-0.867-1.515-1.93-2.868-3.174-4.023-3.6-3.362-8.542-5.121-13.928-5.118-0.065 0-0.155-0.002-0.27 0.001-0.066-0.001-0.138-0.001-0.214-0.001-5.388-0.003-10.332 1.755-13.931 5.116-3.608 3.354-5.78 8.292-5.771 14.256v0.029C5.16 37.171 9.535 44.428 16.002 47.95c-0.576 2.338-0.951 4.721-1.103 7.112-0.042 0.67-0.061 1.341-0.061 2.006 0.002 18.465 15.567 33.323 35.412 33.47 19.875-0.146 35.439-15.005 35.441-33.47 0-0.665-0.02-1.331-0.059-2.006l-1.789 0.108-1.787 0.107c0.037 0.598 0.053 1.194 0.053 1.79 0.002 16.353-13.781 29.715-31.859 29.888-18.05-0.173-31.833-13.535-31.831-29.888 0-0.596 0.018-1.19 0.057-1.782 0.996-17.405 15.538-34.418 31.804-34.414 16.236-0.004 30.781 17.009 31.777 34.406l3.576-0.216c-0.153-2.43-0.54-4.85-1.133-7.224 6.363-3.559 10.658-10.75 10.672-19.095v-0.03C95.182 22.75 93.01 17.812 89.4 14.458zM21.665 34.803c-1.778-1.223-3.012-3.4-3.026-6.077l0.003-0.012c0.084-4.085 2.563-6.075 6.337-6.189 0 0 0.025 0 0.081 0l0.067 0.003 0.07-0.005v0.002c2.312 0.07 4.124 0.864 5.204 2.404C27.031 27.683 24.07 31.043 21.665 34.803zM33.292 22.788c-0.331-0.456-0.696-0.881-1.105-1.26-1.84-1.716-4.335-2.588-6.989-2.585-0.014 0-0.059-0.001-0.137 0.001-0.022 0-0.049-0.001-0.082-0.001-2.656-0.002-5.151 0.87-6.991 2.585-1.831 1.696-2.924 4.212-2.928 7.123 0 0.022-0.002 0.047-0.002 0.075 0.006 3.873 1.894 7.303 4.79 9.19-1.106 2.083-2.047 4.26-2.807 6.495-4.91-2.994-8.286-8.737-8.313-15.627l0.002-0.03v-0.04c0.085-10.134 6.879-15.677 16.118-15.791 0.062 0 0.133 0 0.216 0.002h0.044l0.046-0.002h0.178c5.954 0.073 10.875 2.419 13.654 6.784C37.002 20.542 35.1 21.58 33.292 22.788zM78.802 34.704c-2.428-3.773-5.413-7.143-8.812-9.895 1.094-1.461 2.873-2.217 5.132-2.284l0.002-0.003 0.07 0.005 0.066-0.002c0.053 0 0.078 0 0.078 0 3.773 0.112 6.254 2.105 6.338 6.189h0.004l-0.004 0.011C81.663 31.328 80.5 33.463 78.802 34.704zM91.59 28.744c-0.014 6.825-3.311 12.537-8.134 15.568-0.77-2.246-1.723-4.431-2.842-6.523 2.806-1.908 4.637-5.263 4.646-9.064v-0.011c0.012-2.938-1.084-5.478-2.932-7.186-1.84-1.718-4.334-2.589-6.99-2.587-0.033 0-0.061 0.001-0.084 0.001-0.074-0.003-0.121-0.001-0.133-0.001-2.656-0.002-5.152 0.869-6.988 2.587-0.379 0.351-0.717 0.745-1.028 1.163-1.818-1.203-3.73-2.23-5.722-3.058 2.787-4.317 7.685-6.639 13.605-6.712 0.088 0 0.146 0 0.178 0.002h0.09c0.08 0 0.152-0.002 0.217-0.002 9.236 0.115 16.033 5.658 16.117 15.792V28.744zM50.326 45.368c-0.024 0-0.045 0-0.062 0.001-0.042-0.001-0.06 0-0.06-0.001-3.204-0.008-6.134 1.501-8.155 3.969-2.018 2.448-3.199 5.817-3.217 9.682-0.005 0.073-0.003 0.102-0.003 0.104-0.005 3.89 1.207 7.112 3.3 9.335 2.079 2.224 4.98 3.38 8.034 3.38h0.029c0 0 0.021 0 0.075 0h0.044l0.046-0.004c3.057 0.004 5.963-1.152 8.045-3.376 2.094-2.226 3.305-5.445 3.301-9.335v-0.003h0.002c0-3.91-1.186-7.313-3.221-9.783C56.459 46.869 53.529 45.359 50.326 45.368zM58.121 59.122c-0.117 6.308-3.461 9.03-7.782 9.131-0.042 0-0.076 0-0.103 0.002h-0.044c-4.32-0.103-7.665-2.827-7.782-9.133v-0.003c0.059-6.41 3.703-10.148 7.774-10.171l0.029 0.002 0.102-0.002h0.011c4.078 0.01 7.738 3.749 7.795 10.171V59.122z" fill="#ea3c12" data-fill-palette-color="accent"></path></g></g></g><g display="none" fill="#ea3c12" data-fill-palette-color="accent"><g display="inline" fill="#ea3c12" data-fill-palette-color="accent"><g fill="#ea3c12" data-fill-palette-color="accent"><path d="M71.687 42.905c-0.084-9.975-10.058-17.434-21.834-17.452-11.778 0.018-21.75 7.478-21.836 17.452 0 2.378 0.614 4.639 1.675 6.679-2.482 2.877-4 6.387-4 10.199 0 5.279 2.865 9.974 7.253 13.253 4.397 3.293 10.356 5.271 16.907 5.273 6.549-0.002 12.508-1.98 16.905-5.273 4.389-3.279 7.257-7.974 7.253-13.253 0.002-3.812-1.515-7.321-3.998-10.198C71.074 47.544 71.688 45.283 71.687 42.905zM70.722 59.783c0 4.046-2.174 7.791-5.937 10.623-3.752 2.817-9.049 4.62-14.933 4.615-5.885 0.005-11.183-1.798-14.935-4.615-3.761-2.832-5.937-6.577-5.937-10.623 0.002-3.242 1.408-6.261 3.906-8.818l0.906-0.925-0.684-1.096c-1.161-1.869-1.802-3.894-1.805-6.039 0.003-3.778 1.945-7.259 5.284-9.884 3.332-2.612 8.03-4.28 13.253-4.28h0.011c5.228-0.002 9.93 1.666 13.262 4.28 3.341 2.625 5.283 6.106 5.283 9.884 0 2.145-0.642 4.17-1.803 6.039L65.91 50.04l0.905 0.925C69.315 53.522 70.72 56.541 70.722 59.783zM42.487 50.041c1.39 0 2.518-1.128 2.518-2.519s-1.128-2.519-2.518-2.519c-1.392 0-2.52 1.128-2.52 2.519S41.095 50.041 42.487 50.041zM59.794 47.522c0-1.39-1.128-2.519-2.52-2.519-1.39 0-2.519 1.128-2.519 2.519s1.129 2.519 2.519 2.519C58.666 50.041 59.794 48.913 59.794 47.522zM40.997 36.302c0.968 0.013 1.207 0.104 1.765 0.262 0.557 0.171 1.433 0.408 2.696 0.395 1.264 0.013 2.139-0.224 2.696-0.395 0.558-0.158 0.798-0.25 1.769-0.262 0.969 0.013 1.209 0.104 1.77 0.262 0.558 0.171 1.433 0.408 2.698 0.395 0.029 0.001 0.059 0.001 0.09 0.001 1.214 0 2.062-0.229 2.607-0.396 0.561-0.158 0.801-0.25 1.772-0.262 0.908 0 1.643-0.735 1.643-1.643 0-0.909-0.734-1.645-1.643-1.645-1.265-0.011-2.14 0.225-2.699 0.396-0.559 0.157-0.802 0.252-1.771 0.264-0.97-0.012-1.214-0.106-1.771-0.264-0.559-0.171-1.434-0.407-2.696-0.396-1.264-0.011-2.141 0.225-2.698 0.396-0.558 0.157-0.798 0.25-1.766 0.261-0.968-0.011-1.21-0.104-1.765-0.261-0.557-0.171-1.435-0.407-2.696-0.396-0.91 0-1.645 0.736-1.645 1.645C39.352 35.566 40.087 36.302 40.997 36.302zM40.997 41.257c0.968 0.011 1.207 0.104 1.765 0.261 0.557 0.171 1.433 0.407 2.696 0.398h0.072c1.226 0 2.077-0.231 2.624-0.398 0.558-0.157 0.798-0.25 1.769-0.261 0.969 0.011 1.209 0.104 1.77 0.261 0.558 0.171 1.433 0.407 2.698 0.396 1.264 0.011 2.14-0.225 2.697-0.396 0.561-0.157 0.801-0.25 1.772-0.261 0.908 0 1.643-0.736 1.643-1.644 0-0.909-0.734-1.644-1.643-1.644-1.265-0.013-2.14 0.224-2.699 0.396-0.559 0.157-0.802 0.251-1.771 0.264-0.97-0.013-1.214-0.107-1.771-0.264-0.559-0.171-1.434-0.408-2.696-0.396-1.264-0.013-2.141 0.224-2.698 0.396-0.558 0.157-0.798 0.251-1.766 0.262-0.968-0.011-1.21-0.105-1.765-0.262-0.557-0.171-1.435-0.408-2.696-0.396-0.91 0-1.645 0.735-1.645 1.644C39.352 40.521 40.087 41.257 40.997 41.257zM46.013 56.439c-0.706 0.329-0.877 1.457-0.382 2.518 0.494 1.061 1.468 1.656 2.174 1.325 0.707-0.328 0.877-1.456 0.383-2.518C47.693 56.704 46.719 56.111 46.013 56.439zM51.698 57.765c-0.495 1.062-0.323 2.189 0.381 2.518 0.708 0.331 1.681-0.265 2.176-1.325s0.323-2.188-0.383-2.518C53.165 56.111 52.191 56.704 51.698 57.765zM57.052 61.55c0.271 0.164 0.567 0.244 0.861 0.244 0.553 0 1.092-0.279 1.402-0.782 0.581-0.938 0.925-2.035 0.923-3.18 0.002-1.146-0.342-2.239-0.926-3.179-0.575-0.94-1.379-1.737-2.321-2.384-0.942-0.648-2.033-1.152-3.222-1.5-1.19-0.344-2.479-0.532-3.828-0.532s-2.638 0.188-3.829 0.534c-1.189 0.346-2.28 0.85-3.221 1.498-0.942 0.646-1.746 1.443-2.326 2.386-0.576 0.936-0.926 2.029-0.924 3.177-0.002 1.147 0.348 2.241 0.924 3.178 0.474 0.772 1.488 1.015 2.26 0.54 0.775-0.476 1.016-1.487 0.542-2.263-0.298-0.488-0.436-0.963-0.438-1.455 0.002-0.495 0.139-0.967 0.438-1.456 0.297-0.483 0.761-0.969 1.386-1.396 0.625-0.429 1.395-0.796 2.274-1.05 0.886-0.258 1.872-0.403 2.913-0.403 1.042 0 2.027 0.146 2.908 0.403 0.883 0.254 1.657 0.621 2.28 1.05 0.624 0.428 1.087 0.913 1.384 1.396 0.298 0.485 0.435 0.959 0.437 1.456-0.002 0.498-0.139 0.967-0.437 1.452C56.038 60.061 56.279 61.074 57.052 61.55zM58.912 64.666h-0.003c-1.114 0.783-2.475 1.438-4.005 1.893-1.532 0.456-3.233 0.71-5.024 0.71-1.792 0-3.492-0.254-5.022-0.71-1.534-0.454-2.893-1.109-4.01-1.893-0.743-0.521-1.768-0.342-2.29 0.403-0.522 0.742-0.343 1.765 0.4 2.287 1.438 1.01 3.118 1.805 4.962 2.354 1.845 0.55 3.856 0.847 5.959 0.847 2.104 0 4.115-0.297 5.962-0.847 1.842-0.549 3.521-1.344 4.957-2.354 0.743-0.522 0.923-1.547 0.4-2.287C60.678 64.326 59.652 64.145 58.912 64.666zM85.047 30.718c-0.191-0.014-0.389-0.019-0.57-0.016-2.392 0.011-4.57 0.898-6.323 2.358-6.417-11.569-17.14-19.003-28.143-19.123-11.021 0.12-21.75 7.555-28.167 19.127-1.753-1.463-3.932-2.353-6.325-2.364-0.184 0-0.38 0.005-0.59 0.019-5.614 0.357-9.721 5.416-9.713 11.26 0.002 0.229 0.005 0.481 0.026 0.754 0.349 5.958 4.859 10.766 10.489 10.792 0.137 0 0.262-0.005 0.388-0.01v0.001c0.002 8.717 3.502 16.952 9.49 23.01 5.984 6.056 14.489 9.932 24.39 9.932 9.902 0 18.403-3.876 24.388-9.936 5.988-6.054 9.487-14.289 9.487-23.006 0-0.001 0-0.001 0-0.002 0.129 0.005 0.257 0.011 0.391 0.011 5.632-0.025 10.143-4.835 10.491-10.797l0.003-0.016c0.011-0.242 0.018-0.485 0.018-0.734C94.788 36.137 90.686 31.076 85.047 30.718zM16.293 50.202c-0.063 0.005-0.124 0.022-0.187 0.026-0.126 0.004-0.258 0.008-0.375 0.008-3.619 0.026-6.937-3.245-7.206-7.704l-0.002-0.03c-0.014-0.156-0.018-0.332-0.018-0.524 0.012-4.36 3.015-7.791 6.641-7.979 0.122-0.007 0.242-0.012 0.374-0.012 1.78-0.012 3.479 0.781 4.787 2.112-1.606 3.48-2.842 7.268-3.604 11.3C16.521 48.334 16.389 49.269 16.293 50.202zM49.999 83.168C31.956 83.152 19.426 69.18 19.408 53.516c0-1.816 0.169-3.66 0.522-5.503 3.4-18.22 17.121-30.768 30.08-30.789 12.938 0.021 26.658 12.569 30.057 30.783v0.002c0.351 1.846 0.52 3.69 0.52 5.506C80.571 69.18 68.039 83.152 49.999 83.168zM91.474 42.551c-0.281 4.449-3.593 7.713-7.209 7.685-0.12 0.002-0.25-0.002-0.39-0.009-0.059-0.003-0.114-0.02-0.172-0.024-0.096-0.933-0.226-1.868-0.404-2.805-0.762-4.03-1.998-7.815-3.603-11.293 1.295-1.323 2.975-2.116 4.738-2.117 0.014 0 0.027 0 0.042 0 0.13 0 0.246 0.002 0.359 0.012 3.642 0.19 6.641 3.616 6.652 7.978C91.488 42.16 91.483 42.351 91.474 42.551L91.474 42.551z" fill="#ea3c12" data-fill-palette-color="accent"></path></g></g></g><g display="none" fill="#ea3c12" data-fill-palette-color="accent"><g display="inline" fill="#ea3c12" data-fill-palette-color="accent"><g fill="#ea3c12" data-fill-palette-color="accent"><path d="M49.598 43.922c-11.819 0.019-21.697 8.245-21.743 18.887 0.046 10.646 9.924 18.869 21.743 18.891 11.818-0.021 21.696-8.245 21.743-18.891C71.294 52.167 61.416 43.941 49.598 43.922zM62.67 73.68c-3.305 2.837-7.93 4.628-13.072 4.628-5.142 0-9.769-1.791-13.073-4.628-3.306-2.845-5.278-6.669-5.278-10.87s1.973-8.024 5.278-10.868c3.304-2.836 7.931-4.629 13.073-4.629 5.143 0 9.768 1.792 13.072 4.629 3.308 2.844 5.278 6.667 5.278 10.868S65.978 70.835 62.67 73.68zM69.568 41.598c-1.836 0-3.323 1.489-3.323 3.323 0 1.837 1.487 3.325 3.323 3.325 1.835 0 3.324-1.488 3.324-3.325C72.893 43.087 71.403 41.598 69.568 41.598zM32.972 44.921c0-1.834-1.488-3.323-3.324-3.323-1.836 0-3.323 1.489-3.323 3.323 0 1.837 1.487 3.325 3.323 3.325C31.484 48.246 32.972 46.758 32.972 44.921zM49.597 49.491c-3.578 0-6.478 2.9-6.478 6.479 0 3.578 2.9 6.479 6.478 6.479s6.481-2.901 6.481-6.479C56.078 52.392 53.175 49.491 49.597 49.491zM94.845 26c-0.003-8.287-6.719-15.003-15.006-15.006-6.609 0.002-12.201 4.28-14.202 10.213-4.886-2.1-10.319-3.28-16.04-3.291-5.495 0.01-10.724 1.101-15.458 3.047-2.071-5.804-7.594-9.967-14.11-9.969C11.743 10.997 5.026 17.713 5.026 26c0 6.238 3.814 11.566 9.23 13.829-1.868 4.179-2.909 8.764-2.913 13.59 0.019 19.711 17.225 35.465 38.253 35.502 21.028-0.037 38.236-15.791 38.256-35.502-0.005-4.742-1.013-9.25-2.819-13.369C90.754 37.936 94.842 32.457 94.845 26zM8.417 26c0.011-6.413 5.2-11.602 11.612-11.613 5.15 0.009 9.492 3.365 11.013 8.005-6.453 3.329-11.766 8.334-15.242 14.402C11.485 35.102 8.426 30.918 8.417 26zM74.298 76.078c-6.301 5.827-15.032 9.45-24.701 9.45-9.67 0-18.397-3.623-24.699-9.45-6.303-5.833-10.163-13.829-10.165-22.659 0.002-8.833 3.862-16.829 10.165-22.66 6.298-5.824 15.024-9.45 24.69-9.45h0.009c9.669-0.002 18.4 3.623 24.701 9.45 6.303 5.831 10.161 13.827 10.165 22.66C84.459 62.249 80.601 70.245 74.298 76.078zM83.505 36.994c-3.37-5.974-8.515-10.931-14.775-14.295 1.427-4.799 5.846-8.303 11.109-8.312 6.413 0.011 11.601 5.2 11.612 11.613C91.441 31.129 88.115 35.456 83.505 36.994z" fill="#ea3c12" data-fill-palette-color="accent"></path></g></g></g><g display="none" fill="#ea3c12" data-fill-palette-color="accent"><g display="inline" fill="#ea3c12" data-fill-palette-color="accent"><g fill="#ea3c12" data-fill-palette-color="accent"><path d="M39.245 50.489c1.546 0 2.799-1.254 2.799-2.798 0-1.546-1.252-2.8-2.799-2.8-1.546 0-2.799 1.254-2.799 2.8C36.446 49.235 37.699 50.489 39.245 50.489zM61.255 50.489c1.546 0 2.8-1.254 2.8-2.798 0-1.546-1.254-2.8-2.8-2.8s-2.798 1.254-2.798 2.8C58.457 49.235 59.709 50.489 61.255 50.489zM55.426 84.195c0.181 0.067 0.367 0.097 0.55 0.097 0.658 0 1.277-0.405 1.517-1.061l1.32-3.626c0.304-0.838-0.128-1.765-0.967-2.066-0.836-0.305-1.763 0.128-2.066 0.964l-1.317 3.623C54.155 82.965 54.587 83.889 55.426 84.195zM42.465 83.231c0.237 0.655 0.856 1.062 1.515 1.062 0.183 0 0.369-0.031 0.551-0.099 0.839-0.307 1.27-1.23 0.964-2.069l-1.321-3.623c-0.304-0.839-1.23-1.271-2.067-0.964-0.838 0.302-1.27 1.229-0.964 2.069L42.465 83.231zM85.582 33.575c-0.005-2.875-0.906-4.688-0.982-4.84-0.394-0.777-1.329-1.099-2.118-0.731L66.1 35.643c-2.299-2.6-5.219-4.542-8.497-5.702l1.479-8.391c3.849-0.085 7.219-2.862 7.914-6.794L67 14.75c0.08-0.477 0.121-0.954 0.121-1.43 0-3.922-2.807-7.386-6.799-8.094-0.481-0.088-0.964-0.127-1.437-0.127-3.927 0-7.388 2.81-8.096 6.802-0.086 0.481-0.128 0.962-0.125 1.434 0 3.391 2.097 6.432 5.239 7.657l-1.43 8.113c-1.472-0.288-2.983-0.447-4.524-0.438-0.419-0.002-0.833 0.026-1.25 0.046l0.002-0.02-0.331 0.032c-0.46 0.029-0.915 0.078-1.368 0.133l-0.281 0.027c-0.063 0.007-0.119 0.022-0.182 0.03-0.342 0.049-0.681 0.104-1.018 0.168-0.231 0.04-0.472 0.07-0.696 0.115l-1.446-8.209c3.143-1.223 5.239-4.265 5.241-7.654 0-0.472-0.042-0.953-0.127-1.434V11.9c-0.709-3.993-4.17-6.801-8.094-6.801-0.479 0-0.958 0.042-1.438 0.128-3.992 0.706-6.8 4.169-6.8 8.094 0 0.476 0.042 0.958 0.127 1.438 0.695 3.928 4.064 6.708 7.916 6.792l1.507 8.54c-3.653 1.349-6.22 3.473-7.939 5.44l-16.143-7.527c-0.789-0.369-1.723-0.046-2.118 0.73-0.077 0.152-0.978 1.965-0.982 4.84-0.038 4.701 2.582 11.886 13.959 18.434-0.457 7.045-0.912 14.084-1.366 21.117-0.04 0.495-0.06 1.012-0.06 1.519 0.007 11.62 10.136 20.672 22.888 20.692 12.751-0.021 22.878-9.072 22.885-20.692 0-0.509-0.02-1.02-0.06-1.538-0.45-6.982-0.902-13.984-1.355-20.985C82.963 45.544 85.619 38.305 85.582 33.575zM53.891 13.335c0-0.288 0.024-0.58 0.076-0.87 0.426-2.432 2.544-4.139 4.919-4.139 0.289 0 0.579 0.024 0.873 0.077 2.429 0.424 4.139 2.544 4.139 4.917l-0.08 0.883h0.002c-0.427 2.424-2.545 4.128-4.918 4.128-0.285 0-0.583-0.026-0.881-0.078C55.6 17.83 53.891 15.71 53.891 13.335zM41.262 18.255c-0.295 0.053-0.587 0.077-0.877 0.077-2.378 0-4.497-1.71-4.92-4.135-0.052-0.298-0.076-0.589-0.079-0.877 0-2.374 1.71-4.494 4.137-4.917 0.298-0.053 0.59-0.079 0.877-0.079 2.375 0 4.492 1.708 4.917 4.136 0.052 0.294 0.078 0.586 0.078 0.875C45.396 15.71 43.685 17.83 41.262 18.255zM33.264 42.575c1.004 0.151 1.955 0.229 2.849 0.229h0.127c5.687 0 9.047-3.197 10.571-6.214 0.924-1.77 1.345-3.476 1.54-4.621 0.528-0.042 1.061-0.07 1.6-0.074 9.352 0.063 17.168 5.967 17.99 16.386 0.502 7.769 1.005 15.552 1.508 23.336H30.452c0.504-7.797 1.007-15.576 1.509-23.353C32.125 46.181 32.582 44.287 33.264 42.575zM28.724 48.36c-9.448-5.883-10.932-11.464-10.967-14.785-0.001-0.725 0.075-1.354 0.175-1.869l13.884 6.473c-0.698 1.146-1.021 1.951-1.038 2.005l-0.054 0.141c-1.073 2.287-1.776 4.863-1.98 7.716C28.738 48.147 28.731 48.253 28.724 48.36zM69.56 75.565c-0.019 0.321-0.028 0.644-0.065 0.96-0.032 0.274-0.09 0.541-0.136 0.812-0.052 0.302-0.093 0.606-0.161 0.903-0.062 0.274-0.149 0.54-0.227 0.809-0.08 0.284-0.151 0.572-0.247 0.851-0.094 0.271-0.212 0.533-0.319 0.799-0.107 0.264-0.204 0.533-0.324 0.791-0.125 0.267-0.273 0.521-0.412 0.782-0.131 0.244-0.252 0.494-0.395 0.732-0.155 0.259-0.334 0.504-0.503 0.754-0.152 0.226-0.294 0.457-0.457 0.675-0.186 0.247-0.392 0.479-0.591 0.717-0.172 0.206-0.335 0.42-0.518 0.619-0.211 0.231-0.444 0.445-0.669 0.666-0.192 0.188-0.375 0.386-0.577 0.566-0.238 0.214-0.496 0.409-0.747 0.611-0.21 0.17-0.411 0.349-0.63 0.51-0.262 0.194-0.544 0.368-0.818 0.549-0.228 0.15-0.445 0.311-0.682 0.452-0.285 0.173-0.59 0.322-0.887 0.481-0.243 0.13-0.478 0.27-0.728 0.391-0.312 0.15-0.642 0.277-0.965 0.412-0.253 0.106-0.497 0.225-0.756 0.321-0.342 0.127-0.7 0.229-1.052 0.34-0.258 0.081-0.507 0.175-0.77 0.247-0.367 0.101-0.75 0.174-1.127 0.256-0.263 0.057-0.518 0.128-0.785 0.176-0.417 0.075-0.849 0.12-1.277 0.172-0.24 0.029-0.473 0.074-0.717 0.096-0.678 0.061-1.367 0.093-2.069 0.095-0.702-0.002-1.392-0.034-2.07-0.095-0.233-0.021-0.457-0.064-0.687-0.092-0.438-0.053-0.88-0.099-1.307-0.176-0.276-0.049-0.54-0.123-0.812-0.182-0.369-0.081-0.742-0.151-1.101-0.25-0.274-0.074-0.535-0.172-0.803-0.258-0.34-0.107-0.687-0.205-1.017-0.328-0.272-0.102-0.529-0.225-0.794-0.337-0.31-0.131-0.627-0.252-0.927-0.396-0.259-0.125-0.502-0.27-0.753-0.404-0.289-0.154-0.585-0.3-0.863-0.467-0.241-0.146-0.464-0.31-0.698-0.464-0.269-0.178-0.545-0.348-0.802-0.537-0.225-0.166-0.432-0.35-0.647-0.524-0.245-0.197-0.497-0.388-0.729-0.597-0.206-0.185-0.392-0.385-0.588-0.577-0.221-0.218-0.451-0.429-0.659-0.655-0.185-0.201-0.349-0.417-0.522-0.626-0.197-0.235-0.402-0.465-0.585-0.71-0.163-0.218-0.304-0.448-0.456-0.673-0.17-0.251-0.35-0.498-0.505-0.758-0.139-0.231-0.256-0.476-0.384-0.713-0.143-0.267-0.295-0.529-0.423-0.803-0.114-0.245-0.206-0.5-0.308-0.75-0.114-0.28-0.238-0.557-0.337-0.843-0.088-0.256-0.152-0.521-0.227-0.781-0.084-0.293-0.178-0.582-0.247-0.881-0.061-0.266-0.097-0.539-0.144-0.81-0.053-0.303-0.115-0.603-0.151-0.91-0.032-0.277-0.039-0.561-0.057-0.841-0.018-0.276-0.042-0.551-0.046-0.83H69.6C69.597 75.087 69.573 75.325 69.56 75.565zM71.186 48.488c-0.009-0.144-0.018-0.287-0.027-0.431-0.268-3.744-1.371-7.025-3.078-9.777l14.099-6.574c0.1 0.516 0.177 1.146 0.176 1.869C82.316 36.923 80.818 42.559 71.186 48.488z" fill="#ea3c12" data-fill-palette-color="accent"></path></g></g></g><g fill="#ea3c12" data-fill-palette-color="accent"><g fill="#ea3c12" data-fill-palette-color="accent"><g fill="#ea3c12" data-fill-palette-color="accent"><path d="M37.417 53.831c-1.797 0-3.254 1.457-3.254 3.254s1.457 3.256 3.254 3.256c1.797 0 3.255-1.459 3.255-3.256S39.214 53.831 37.417 53.831zM62.383 53.831c-1.796 0-3.253 1.457-3.253 3.254s1.457 3.256 3.253 3.256c1.799 0 3.256-1.459 3.256-3.256S64.182 53.831 62.383 53.831zM49.93 63.314c-2.96 0-5.361 2.026-5.361 4.527 0 2.502 2.401 4.528 5.361 4.528 2.959 0 5.358-2.026 5.358-4.528C55.288 65.341 52.889 63.314 49.93 63.314zM89.653 26.499c-9.357-8.477-26.96-13.235-27.072-13.302l-0.747-0.207c-0.639-0.208-1.29-0.388-1.952-0.541l-0.561-0.155 0.01 0.028c-1.499-0.308-3.05-0.47-4.637-0.471l-9.21 0.002c-1.589 0-3.142 0.163-4.643 0.471l0.012-0.034-0.665 0.185c-0.61 0.144-1.211 0.31-1.801 0.501l-0.793 0.22c-0.059 0.02-7.937 2.199-15.92 6.103-3.996 1.96-8.021 4.341-11.153 7.196-3.106 2.841-5.443 6.272-5.46 10.33 0.002 0.291 0.013 0.591 0.042 0.901 1.313 14.392 12.783 32.298 12.82 32.425l1.984 3.144 2.471-7.196c0.859 11.989 10.907 21.512 23.108 21.52l9.21-0.002v0.002c12.2-0.008 22.245-9.531 23.103-21.521l2.472 7.196 1.989-3.141c0.032-0.128 11.503-18.034 12.815-32.437 0.024-0.299 0.038-0.584 0.038-0.889C95.098 32.768 92.758 29.337 89.653 26.499zM22.31 35.026v20.29l-3.315 9.654c-3.271-5.735-9.55-18.081-10.343-27.562-0.017-0.195-0.026-0.381-0.026-0.581-0.015-2.568 1.55-5.188 4.3-7.698 3.717-3.412 9.383-6.356 14.435-8.496C24.207 24.591 22.312 29.593 22.31 35.026zM74.297 64.447c-0.017 10.769-8.834 19.586-19.603 19.605h-9.21c-10.772-0.02-19.59-8.837-19.606-19.605V35.026c0.016-10.774 8.833-19.589 19.606-19.609h9.21c10.771 0.02 19.586 8.835 19.603 19.609V64.447zM91.52 37.438c-0.542 6.394-3.598 14.196-6.548 20.293-1.386 2.879-2.746 5.392-3.792 7.235l-3.316-9.657V35.026c-0.003-5.43-1.895-10.431-5.045-14.389 3.198 1.355 6.634 3.016 9.681 4.94 5.36 3.342 9.143 7.432 9.047 11.251C91.546 37.006 91.537 37.209 91.52 37.438z" fill="#ea3c12" data-fill-palette-color="accent"></path></g></g></g></svg></g></svg></g><g></g></svg></g></svg><rect width="395.52" height="246.5950585887343" fill="none" stroke="none" visibility="hidden"></rect></g></svg></g></svg>